<svg id="Layer_1" data-name="Layer 1" xmlns="http://www.w3.org/2000/svg" viewBox="0 0 512 250"><defs><style>.cls-1{fill:#231f20;}</style></defs><title>Artboard 1</title><path class="cls-1" d="M82.77,167.16q10.59,10.83,10.59,30t-10.59,30Q72.17,238,53.18,238t-29.6-10.83Q13,216.3,13,197.14t10.59-30q10.61-10.83,29.6-10.83T82.77,167.16ZM39.28,178.54q-4.78,6.21-4.79,18.6t4.79,18.61q4.78,6.19,13.9,6.2t13.89-6.2q4.79-6.21,4.79-18.61t-4.79-18.6q-4.78-6.19-13.89-6.2T39.28,178.54Z"/><path class="cls-1" d="M222.33,163.71q7.92,7.38,7.92,21.19v51.49h-21.5V189.14q0-8.16-3.61-12t-9.89-3.85a15.83,15.83,0,0,0-12.41,5.5Q178,184.27,178,194.16v42.23H156.47V189.14q0-8.16-3.61-12t-10.05-3.85a16.14,16.14,0,0,0-12.16,5.42q-5.12,5.42-5.11,16.09v41.6H104V157.9h19.31l.62,14a27.35,27.35,0,0,1,10.76-11.62,30.2,30.2,0,0,1,15.3-3.92,29.86,29.86,0,0,1,15.62,4.08,23.72,23.72,0,0,1,10,11.77,26.66,26.66,0,0,1,11-11.77,31.4,31.4,0,0,1,15.7-4.08Q214.4,156.33,222.33,163.71Z"/><path class="cls-1" d="M315.34,167.16q8.94,10.83,9,30.14,0,19.15-9,29.91T290.69,238a28,28,0,0,1-16.09-4.63,28.71,28.71,0,0,1-10.28-12.48l-.79,15.54h-19V123.52h21.51v47.25a27.17,27.17,0,0,1,9.89-10.6,27.69,27.69,0,0,1,14.75-3.84Q306.4,156.33,315.34,167.16Zm-17.43,48q4.88-6.28,4.87-18.06t-4.87-18q-4.86-6.27-13.65-6.28a16.15,16.15,0,0,0-12.72,5.5q-4.87,5.49-5.49,15.38v6.91q.61,10.05,5.49,15.46a16.29,16.29,0,0,0,12.72,5.42Q293.05,221.48,297.91,215.2Z"/><path class="cls-1" d="M412,222.73l-1.57,13a22.46,22.46,0,0,1-10.2,2.2q-15.07,0-18-11.77A21.52,21.52,0,0,1,371.54,235a44.64,44.64,0,0,1-17.11,3q-11.46,0-17.9-5.18t-6.43-14.91q0-19.16,30.61-24.81l18.84-3.61v-3.77c0-4.18-1.18-7.51-3.54-10S370.39,172,366.2,172q-7.21,0-11.77,3.14t-6.28,10.2L331,178.15a26,26,0,0,1,11.3-16q8.79-5.82,22.92-5.81,16.8,0,26.22,7.3t9.42,21.58V217.4c0,2.09.47,3.61,1.41,4.55a6,6,0,0,0,4.4,1.41A18.54,18.54,0,0,0,412,222.73ZM373.82,220c3.82-2.24,5.73-5.31,5.73-9.18v-8.16l-16.8,3.77a19.73,19.73,0,0,0-7.93,3.37,7.21,7.21,0,0,0-2.59,5.89,7,7,0,0,0,2.36,5.73,10,10,0,0,0,6.59,2A24.37,24.37,0,0,0,373.82,220Z"/><path class="cls-1" d="M453,201.7l-14.29,15.22v19.47H417.22V123.52h21.51v70.17L472.8,157.9h24.33l-29.51,30.77L499,236.39H474.68Z"/><path class="cls-1" d="M370.27,27C416.68,15.71,257,12,257,12H6V135.56a693.22,693.22,0,0,0,144.38-25.79C245.57,81.91,281.16,48.58,370.27,27Z"/><polygon class="cls-1" points="506 12.04 506 12.04 505.99 12.04 506 12.04"/><path class="cls-1" d="M449.61,27C360.5,48.62,324.91,82,229.73,109.81c-31.87,9.32,61.77,9.28,93.63,0C404.11,86.13,442,58.56,506,37.55v-21A532.15,532.15,0,0,0,449.61,27Z"/><path class="cls-1" d="M506,76.27c-25.35,11.32-53.1,22.81-89.6,33.5-14.65,4.28-4.87,8.21,13.65,10.29L506,117.29Z"/></svg>